<svg width="73" height="77" viewBox="0 0 73 77" fill="none" xmlns="http://www.w3.org/2000/svg">
<path d="M24.6196 0.465454L29.4022 4.88683C31.1957 6.51576 32.1522 8.72646 32.1522 11.1699C32.1522 13.4969 33.1088 15.7076 34.7827 17.3365L35.3805 17.9183L40.8805 0.581796" fill="white"/>
<path d="M8.35864 15.9403L14.9347 15.7076C17.326 15.5912 19.7173 16.5221 21.3912 18.151C23.0652 19.7799 25.3369 20.5944 27.7282 20.5944H28.5652L19.7173 4.65411" fill="white"/>
<path d="M8.3587 38.0472L12.7826 33.3931C14.4565 31.6478 16.7283 30.6007 19.1196 30.6007C21.5109 30.6007 23.663 29.5535 25.337 27.9246L25.9348 27.3428L8 22.3397" fill="white"/>
<path d="M24.6197 53.4057L24.261 47.0063C24.1414 44.6793 24.9784 42.3522 26.6523 40.6069C28.2066 38.978 29.1632 36.6509 29.0436 34.4403V33.6258L12.7827 42.5849" fill="white"/>
<path d="M47.3369 52.9403L42.4347 48.7516C40.6412 47.2391 39.5651 45.0284 39.4456 42.585C39.326 40.2579 38.2499 38.1636 36.576 36.5346L35.9782 35.9529L31.1956 53.5221" fill="white"/>
<path d="M62.8805 36.7673L56.3044 37.2327C53.9131 37.4654 51.5218 36.651 49.7283 35.022C47.9348 33.5094 45.6631 32.695 43.2718 32.8113H42.4348L52 48.4025" fill="white"/>
<path d="M61.8044 14.7767L57.6196 19.6635C56.0653 21.4088 53.7936 22.5723 51.4023 22.6887C49.011 22.805 46.8588 23.8522 45.3044 25.5975L44.8262 26.1793L63.0001 30.3679" fill="white"/>
<path d="M44.9456 0L45.5435 6.39937C45.7826 8.72642 45.0652 11.0535 43.3913 12.9151C41.837 14.6604 41.1196 16.8711 41.2391 19.1981L41.3587 20.0126L57.1413 10.3554" fill="white"/>
<path d="M14.1206 67.776C14.1206 66.944 14.3006 66.204 14.6606 65.556C15.0206 64.9 15.5206 64.392 16.1606 64.032C16.8086 63.664 17.5406 63.48 18.3566 63.48C19.3566 63.48 20.2126 63.744 20.9246 64.272C21.6366 64.8 22.1126 65.52 22.3526 66.432H20.0966C19.9286 66.08 19.6886 65.812 19.3766 65.628C19.0726 65.444 18.7246 65.352 18.3326 65.352C17.7006 65.352 17.1886 65.572 16.7966 66.012C16.4046 66.452 16.2086 67.04 16.2086 67.776C16.2086 68.512 16.4046 69.1 16.7966 69.54C17.1886 69.98 17.7006 70.2 18.3326 70.2C18.7246 70.2 19.0726 70.108 19.3766 69.924C19.6886 69.74 19.9286 69.472 20.0966 69.12H22.3526C22.1126 70.032 21.6366 70.752 20.9246 71.28C20.2126 71.8 19.3566 72.06 18.3566 72.06C17.5406 72.06 16.8086 71.88 16.1606 71.52C15.5206 71.152 15.0206 70.644 14.6606 69.996C14.3006 69.348 14.1206 68.608 14.1206 67.776ZM26.6572 72.084C26.0412 72.084 25.4892 71.984 25.0012 71.784C24.5132 71.584 24.1212 71.288 23.8252 70.896C23.5372 70.504 23.3852 70.032 23.3692 69.48H25.5532C25.5852 69.792 25.6932 70.032 25.8772 70.2C26.0612 70.36 26.3012 70.44 26.5972 70.44C26.9012 70.44 27.1412 70.372 27.3172 70.236C27.4932 70.092 27.5812 69.896 27.5812 69.648C27.5812 69.44 27.5092 69.268 27.3652 69.132C27.2292 68.996 27.0572 68.884 26.8492 68.796C26.6492 68.708 26.3612 68.608 25.9852 68.496C25.4412 68.328 24.9972 68.16 24.6532 67.992C24.3092 67.824 24.0132 67.576 23.7652 67.248C23.5172 66.92 23.3932 66.492 23.3932 65.964C23.3932 65.18 23.6772 64.568 24.2452 64.128C24.8132 63.68 25.5532 63.456 26.4652 63.456C27.3932 63.456 28.1412 63.68 28.7092 64.128C29.2772 64.568 29.5812 65.184 29.6212 65.976H27.4012C27.3852 65.704 27.2852 65.492 27.1012 65.34C26.9172 65.18 26.6812 65.1 26.3932 65.1C26.1452 65.1 25.9452 65.168 25.7932 65.304C25.6412 65.432 25.5652 65.62 25.5652 65.868C25.5652 66.14 25.6932 66.352 25.9492 66.504C26.2052 66.656 26.6052 66.82 27.1492 66.996C27.6932 67.18 28.1332 67.356 28.4692 67.524C28.8132 67.692 29.1092 67.936 29.3572 68.256C29.6052 68.576 29.7292 68.988 29.7292 69.492C29.7292 69.972 29.6052 70.408 29.3572 70.8C29.1172 71.192 28.7652 71.504 28.3012 71.736C27.8372 71.968 27.2892 72.084 26.6572 72.084ZM36.152 66.936V68.64H30.872V66.936H36.152ZM37.677 70.356C37.949 70.14 38.073 70.04 38.049 70.056C38.833 69.408 39.449 68.876 39.897 68.46C40.353 68.044 40.737 67.608 41.049 67.152C41.361 66.696 41.517 66.252 41.517 65.82C41.517 65.492 41.441 65.236 41.289 65.052C41.137 64.868 40.909 64.776 40.605 64.776C40.301 64.776 40.061 64.892 39.885 65.124C39.717 65.348 39.633 65.668 39.633 66.084H37.653C37.669 65.404 37.813 64.836 38.085 64.38C38.365 63.924 38.729 63.588 39.177 63.372C39.633 63.156 40.137 63.048 40.689 63.048C41.641 63.048 42.357 63.292 42.837 63.78C43.325 64.268 43.569 64.904 43.569 65.688C43.569 66.544 43.277 67.34 42.693 68.076C42.109 68.804 41.365 69.516 40.461 70.212H43.701V71.88H37.677V70.356ZM46.8125 69.432C46.9325 70.064 47.3005 70.38 47.9165 70.38C48.3405 70.38 48.6405 70.192 48.8165 69.816C48.9925 69.44 49.0805 68.828 49.0805 67.98C48.9045 68.228 48.6645 68.42 48.3605 68.556C48.0565 68.692 47.7165 68.76 47.3405 68.76C46.8285 68.76 46.3725 68.656 45.9725 68.448C45.5725 68.232 45.2565 67.916 45.0245 67.5C44.8005 67.076 44.6885 66.564 44.6885 65.964C44.6885 65.372 44.8085 64.856 45.0485 64.416C45.2965 63.976 45.6445 63.636 46.0925 63.396C46.5485 63.156 47.0845 63.036 47.7005 63.036C48.8845 63.036 49.7125 63.404 50.1845 64.14C50.6565 64.876 50.8925 65.96 50.8925 67.392C50.8925 68.432 50.7965 69.292 50.6045 69.972C50.4205 70.644 50.1045 71.156 49.6565 71.508C49.2165 71.86 48.6125 72.036 47.8445 72.036C47.2365 72.036 46.7165 71.916 46.2845 71.676C45.8605 71.436 45.5325 71.12 45.3005 70.728C45.0765 70.336 44.9485 69.904 44.9165 69.432H46.8125ZM47.8085 67.14C48.1445 67.14 48.4125 67.04 48.6125 66.84C48.8125 66.632 48.9125 66.352 48.9125 66C48.9125 65.616 48.8085 65.32 48.6005 65.112C48.3925 64.904 48.1125 64.8 47.7605 64.8C47.4085 64.8 47.1285 64.908 46.9205 65.124C46.7205 65.332 46.6205 65.62 46.6205 65.988C46.6205 66.332 46.7205 66.612 46.9205 66.828C47.1285 67.036 47.4245 67.14 47.8085 67.14ZM51.9873 67.5C51.9873 66.124 52.2513 65.04 52.7793 64.248C53.3153 63.456 54.1753 63.06 55.3593 63.06C56.5433 63.06 57.3993 63.456 57.9273 64.248C58.4633 65.04 58.7313 66.124 58.7313 67.5C58.7313 68.892 58.4633 69.984 57.9273 70.776C57.3993 71.568 56.5433 71.964 55.3593 71.964C54.1753 71.964 53.3153 71.568 52.7793 70.776C52.2513 69.984 51.9873 68.892 51.9873 67.5ZM56.7153 67.5C56.7153 66.692 56.6273 66.072 56.4513 65.64C56.2753 65.2 55.9113 64.98 55.3593 64.98C54.8073 64.98 54.4433 65.2 54.2673 65.64C54.0913 66.072 54.0033 66.692 54.0033 67.5C54.0033 68.044 54.0353 68.496 54.0993 68.856C54.1633 69.208 54.2913 69.496 54.4833 69.72C54.6833 69.936 54.9753 70.044 55.3593 70.044C55.7433 70.044 56.0313 69.936 56.2233 69.72C56.4233 69.496 56.5553 69.208 56.6193 68.856C56.6833 68.496 56.7153 68.044 56.7153 67.5Z" fill="white"/>
</svg>
