<svg width="80" height="75" viewBox="0 0 80 75" fill="none" xmlns="http://www.w3.org/2000/svg">
<path d="M78.8712 61.9149H80V56.3298C80 50.9043 76.0494 46.4362 71.2522 46.4362C67.4427 46.4362 64.0564 43.2447 63.4921 39.0957C63.0688 36.5425 63.7742 33.9894 65.1852 31.9149C66.5961 30 68.8536 28.883 71.1111 28.883C76.0494 28.883 80 24.4149 80 18.8298V13.2447H78.8712C71.3933 13.2447 64.903 7.81915 62.5044 0H47.6896V18.3511C47.6896 22.6596 44.8677 26.4894 41.1993 27.1277C40.6349 27.2872 40.0705 27.2872 39.6473 27.2872C35.5556 26.9681 32.3104 23.1383 32.3104 18.5106V0H17.4956C15.097 7.81915 8.60671 13.2447 1.12875 13.2447H0V18.8298C0 24.2553 3.95061 28.7234 8.74779 28.7234C12.5573 28.7234 15.9436 31.9149 16.5079 36.0638C16.9312 38.617 16.2258 41.1702 14.8148 43.2447C13.4039 45.1596 11.1464 46.2766 8.88889 46.2766C3.95062 46.2766 0 50.7447 0 56.1702V61.7553H1.12875C8.60671 61.7553 15.097 67.1808 17.4956 75H32.3104V56.6489C32.3104 52.3404 35.1323 48.5106 38.8007 47.8723C39.224 47.7128 39.7884 47.7128 40.2116 47.7128C44.4444 48.0319 47.6896 51.8617 47.6896 56.4894V75H62.5044C64.7619 67.3404 71.3933 61.9149 78.8712 61.9149Z" fill="white"/>
</svg>
